<svg width="108" height="113" viewBox="0 0 108 113" fill="none" xmlns="http://www.w3.org/2000/svg">
<rect x="3.5" y="3.5" width="101" height="53" fill="#004225" stroke="#FF69B4" stroke-width="7"/>
<rect x="3.5" y="56.5" width="101" height="53" fill="white" stroke="#004225" stroke-width="7"/>
<path d="M39.7192 16.2727H47.6133V37.3825C47.6133 39.8221 47.0327 41.9474 45.8715 43.7585C44.7103 45.5589 43.091 46.9545 41.0135 47.9453C38.9361 48.9254 36.5231 49.4155 33.7745 49.4155C30.994 49.4155 28.565 48.9254 26.4876 47.9453C24.4102 46.9545 22.7962 45.5589 21.6456 43.7585C20.4951 41.9474 19.9198 39.8221 19.9198 37.3825V16.2727H27.8299V36.6953C27.8299 37.8246 28.075 38.8313 28.565 39.7156C29.0657 40.5998 29.7635 41.2923 30.6584 41.793C31.5533 42.2937 32.592 42.544 33.7745 42.544C34.9571 42.544 35.9905 42.2937 36.8747 41.793C37.7696 41.2923 38.4674 40.5998 38.9681 39.7156C39.4688 38.8313 39.7192 37.8246 39.7192 36.6953V16.2727ZM62.2391 49V16.2727H75.7583C78.2086 16.2727 80.3233 16.7148 82.1024 17.5991C83.8922 18.4727 85.2718 19.7298 86.2413 21.3704C87.2107 23.0004 87.6954 24.9339 87.6954 27.1712C87.6954 29.4403 87.2001 31.3686 86.2093 32.956C85.2185 34.5327 83.8123 35.7365 81.9905 36.5675C80.1688 37.3878 78.0115 37.7979 75.5186 37.7979H66.9692V31.5657H74.0484C75.2416 31.5657 76.2377 31.4112 77.0367 31.1023C77.8464 30.7827 78.4589 30.3033 78.8744 29.6641C79.2899 29.0142 79.4976 28.1832 79.4976 27.1712C79.4976 26.1591 79.2899 25.3228 78.8744 24.6623C78.4589 23.9911 77.8464 23.4904 77.0367 23.1602C76.2271 22.8192 75.231 22.6488 74.0484 22.6488H70.1493V49H62.2391ZM80.6642 34.0426L88.8141 49H80.1848L72.1947 34.0426H80.6642Z" fill="white"/>
<path d="M39.805 103.463C38.6545 103.463 37.669 103.059 36.8487 102.249C36.0391 101.439 35.6396 100.459 35.6502 99.3086C35.6396 98.1793 36.0391 97.2152 36.8487 96.4162C37.669 95.6065 38.6545 95.2017 39.805 95.2017C40.8917 95.2017 41.8505 95.6065 42.6815 96.4162C43.5231 97.2152 43.9492 98.1793 43.9599 99.3086C43.9492 100.076 43.7468 100.773 43.3526 101.402C42.9691 102.031 42.4631 102.531 41.8345 102.904C41.2166 103.277 40.5401 103.463 39.805 103.463ZM53.516 103.463C52.3654 103.463 51.38 103.059 50.5597 102.249C49.75 101.439 49.3505 100.459 49.3612 99.3086C49.3505 98.1793 49.75 97.2152 50.5597 96.4162C51.38 95.6065 52.3654 95.2017 53.516 95.2017C54.6026 95.2017 55.5614 95.6065 56.3924 96.4162C57.234 97.2152 57.6602 98.1793 57.6708 99.3086C57.6602 100.076 57.4577 100.773 57.0636 101.402C56.68 102.031 56.174 102.531 55.5455 102.904C54.9276 103.277 54.2511 103.463 53.516 103.463ZM67.2269 103.463C66.0763 103.463 65.0909 103.059 64.2706 102.249C63.4609 101.439 63.0614 100.459 63.0721 99.3086C63.0614 98.1793 63.4609 97.2152 64.2706 96.4162C65.0909 95.6065 66.0763 95.2017 67.2269 95.2017C68.3136 95.2017 69.2724 95.6065 70.1033 96.4162C70.945 97.2152 71.3711 98.1793 71.3817 99.3086C71.3711 100.076 71.1687 100.773 70.7745 101.402C70.391 102.031 69.8849 102.531 69.2564 102.904C68.6385 103.277 67.962 103.463 67.2269 103.463Z" fill="#FF69B4"/>
</svg>
