<svg width="568" height="187" viewBox="0 0 568 187" fill="none" xmlns="http://www.w3.org/2000/svg">
<line x1="130" y1="147.5" x2="500" y2="147.5" stroke="#004225" stroke-width="4"/>
<path d="M71 38L132.488 149.75H9.5122L71 38Z" fill="#004225"/>
<path d="M497 150L558.488 37.5H435.512L497 150Z" fill="white"/>
<rect x="70.5" y="37.5" width="369" height="112" fill="#004225"/>
<rect x="143" y="37.5" width="357" height="112" fill="white"/>
<path d="M143 150L204.488 37.5H81.5122L143 150Z" fill="#004225"/>
<path d="M93.8011 75.9091H100.818V94.6733C100.818 96.8419 100.302 98.7311 99.2699 100.341C98.2377 101.941 96.7983 103.182 94.9517 104.062C93.1051 104.934 90.9602 105.369 88.517 105.369C86.0455 105.369 83.8864 104.934 82.0398 104.062C80.1932 103.182 78.7585 101.941 77.7358 100.341C76.7131 98.7311 76.2017 96.8419 76.2017 94.6733V75.9091H83.233V94.0625C83.233 95.0663 83.4508 95.9612 83.8864 96.7472C84.3314 97.5331 84.9517 98.1487 85.7472 98.5938C86.5426 99.0388 87.4659 99.2614 88.517 99.2614C89.5682 99.2614 90.4867 99.0388 91.2727 98.5938C92.0682 98.1487 92.6884 97.5331 93.1335 96.7472C93.5786 95.9612 93.8011 95.0663 93.8011 94.0625V75.9091ZM122.413 105V75.9091H134.43C136.608 75.9091 138.487 76.3021 140.069 77.0881C141.66 77.8646 142.886 78.982 143.748 80.4403C144.61 81.8892 145.04 83.608 145.04 85.5966C145.04 87.6136 144.6 89.3277 143.719 90.7386C142.839 92.1402 141.589 93.2102 139.969 93.9489C138.35 94.678 136.433 95.0426 134.217 95.0426H126.617V89.5028H132.91C133.97 89.5028 134.856 89.3655 135.566 89.0909C136.286 88.8068 136.83 88.3807 137.2 87.8125C137.569 87.2348 137.754 86.4962 137.754 85.5966C137.754 84.697 137.569 83.9536 137.2 83.3665C136.83 82.7699 136.286 82.3248 135.566 82.0312C134.846 81.7282 133.961 81.5767 132.91 81.5767H129.444V105H122.413ZM138.79 91.7045L146.035 105H138.364L131.262 91.7045H138.79Z" fill="white"/>
<path d="M196.494 106.5H188.938L198.753 77.4091H208.114L217.929 106.5H210.372L203.54 84.7386H203.312L196.494 106.5ZM195.486 95.0511H211.281V100.392H195.486V95.0511ZM231.814 106.5H221.061V77.4091H231.8C234.764 77.4091 237.316 77.9915 239.456 79.1562C241.606 80.3116 243.263 81.9782 244.428 84.1562C245.592 86.3248 246.175 88.9195 246.175 91.9403C246.175 94.9706 245.592 97.5748 244.428 99.7528C243.272 101.931 241.62 103.602 239.47 104.767C237.321 105.922 234.768 106.5 231.814 106.5ZM228.092 100.506H231.544C233.173 100.506 234.551 100.231 235.678 99.6818C236.814 99.1231 237.671 98.2188 238.249 96.9688C238.836 95.7093 239.129 94.0331 239.129 91.9403C239.129 89.8475 238.836 88.1809 238.249 86.9403C237.661 85.6903 236.795 84.7907 235.649 84.2415C234.513 83.6828 233.111 83.4034 231.445 83.4034H228.092V100.506ZM255.166 77.4091L261.672 98.7159H261.913L268.419 77.4091H276.288L266.473 106.5H257.112L247.297 77.4091H255.166ZM279.42 106.5V77.4091H299.705V83.1193H286.452V89.0852H298.668V94.8097H286.452V100.79H299.705V106.5H279.42ZM328.866 77.4091V106.5H322.901L311.324 89.7102H311.139V106.5H304.108V77.4091H310.159L321.608 94.1705H321.849V77.4091H328.866ZM332.336 83.1193V77.4091H356.924V83.1193H348.103V106.5H341.171V83.1193H332.336ZM377.957 77.4091H384.974V96.1733C384.974 98.3419 384.458 100.231 383.426 101.841C382.394 103.441 380.955 104.682 379.108 105.562C377.261 106.434 375.116 106.869 372.673 106.869C370.202 106.869 368.043 106.434 366.196 105.562C364.349 104.682 362.915 103.441 361.892 101.841C360.869 100.231 360.358 98.3419 360.358 96.1733V77.4091H367.389V95.5625C367.389 96.5663 367.607 97.4612 368.043 98.2472C368.488 99.0331 369.108 99.6487 369.903 100.094C370.699 100.539 371.622 100.761 372.673 100.761C373.724 100.761 374.643 100.539 375.429 100.094C376.224 99.6487 376.845 99.0331 377.29 98.2472C377.735 97.4612 377.957 96.5663 377.957 95.5625V77.4091ZM389.381 106.5V77.4091H401.398C403.576 77.4091 405.456 77.8021 407.038 78.5881C408.629 79.3646 409.855 80.482 410.717 81.9403C411.578 83.3892 412.009 85.108 412.009 87.0966C412.009 89.1136 411.569 90.8277 410.688 92.2386C409.808 93.6402 408.558 94.7102 406.938 95.4489C405.319 96.178 403.401 96.5426 401.185 96.5426H393.586V91.0028H399.879C400.939 91.0028 401.825 90.8655 402.535 90.5909C403.254 90.3068 403.799 89.8807 404.168 89.3125C404.538 88.7348 404.722 87.9962 404.722 87.0966C404.722 86.197 404.538 85.4536 404.168 84.8665C403.799 84.2699 403.254 83.8248 402.535 83.5312C401.815 83.2282 400.93 83.0767 399.879 83.0767H396.413V106.5H389.381ZM405.759 93.2045L413.004 106.5H405.333L398.231 93.2045H405.759ZM415.866 106.5V77.4091H436.15V83.1193H422.897V89.0852H435.113V94.8097H422.897V100.79H436.15V106.5H415.866ZM440.553 106.5V77.4091H452.57C454.748 77.4091 456.628 77.8021 458.21 78.5881C459.8 79.3646 461.027 80.482 461.888 81.9403C462.75 83.3892 463.181 85.108 463.181 87.0966C463.181 89.1136 462.741 90.8277 461.86 92.2386C460.979 93.6402 459.729 94.7102 458.11 95.4489C456.491 96.178 454.573 96.5426 452.357 96.5426H444.758V91.0028H451.05C452.111 91.0028 452.996 90.8655 453.707 90.5909C454.426 90.3068 454.971 89.8807 455.34 89.3125C455.71 88.7348 455.894 87.9962 455.894 87.0966C455.894 86.197 455.71 85.4536 455.34 84.8665C454.971 84.2699 454.426 83.8248 453.707 83.5312C452.987 83.2282 452.102 83.0767 451.05 83.0767H447.585V106.5H440.553ZM456.931 93.2045L464.175 106.5H456.505L449.403 93.2045H456.931Z" fill="#EC15A7"/>
<line x1="188" y1="39.5" x2="558" y2="39.5" stroke="#004225" stroke-width="4"/>
<line x1="131" y1="147.5" x2="501" y2="147.5" stroke="#004225" stroke-width="4"/>
<line x1="70" y1="39.5" x2="203" y2="39.5" stroke="white" stroke-width="4"/>
<line x1="12" y1="148.5" x2="145" y2="148.5" stroke="white" stroke-width="4"/>
<line x1="498.238" y1="148.054" x2="556.238" y2="40.0537" stroke="#004225" stroke-width="4"/>
<line x1="11.238" y1="150.821" x2="71.5617" y2="38.4942" stroke="white" stroke-width="4"/>
</svg>
